<mxfile host="app.diagrams.net" agent="Mozilla/5.0 (Windows NT 10.0; Win64; x64) AppleWebKit/537.36 (KHTML, like Gecko) Chrome/137.0.0.0 Safari/537.36" version="27.2.0">
  <diagram name="ページ1" id="fdQCkiyurQQsUdsBse4f">
    <mxGraphModel dx="1281" dy="1731" grid="1" gridSize="10" guides="1" tooltips="1" connect="1" arrows="1" fold="1" page="1" pageScale="1" pageWidth="827" pageHeight="1169" math="0" shadow="0">
      <root>
        <mxCell id="0" />
        <mxCell id="1" parent="0" />
        <mxCell id="rG4kAE8rR3QUM03pJiwQ-5" value="" style="shape=internalStorage;whiteSpace=wrap;html=1;backgroundOutline=1;dx=30;dy=30;" vertex="1" parent="1">
          <mxGeometry x="230" y="-460" width="180" height="360" as="geometry" />
        </mxCell>
        <mxCell id="rG4kAE8rR3QUM03pJiwQ-7" value="" style="endArrow=none;html=1;rounded=0;entryX=0.997;entryY=0.183;entryDx=0;entryDy=0;entryPerimeter=0;" edge="1" parent="1">
          <mxGeometry width="50" height="50" relative="1" as="geometry">
            <mxPoint x="231" y="-339" as="sourcePoint" />
            <mxPoint x="410" y="-340" as="targetPoint" />
          </mxGeometry>
        </mxCell>
        <mxCell id="rG4kAE8rR3QUM03pJiwQ-8" value="" style="endArrow=none;html=1;rounded=0;entryX=0.997;entryY=0.183;entryDx=0;entryDy=0;entryPerimeter=0;" edge="1" parent="1">
          <mxGeometry width="50" height="50" relative="1" as="geometry">
            <mxPoint x="230" y="-369" as="sourcePoint" />
            <mxPoint x="409" y="-370" as="targetPoint" />
          </mxGeometry>
        </mxCell>
        <mxCell id="rG4kAE8rR3QUM03pJiwQ-9" value="" style="endArrow=none;html=1;rounded=0;entryX=0.997;entryY=0.183;entryDx=0;entryDy=0;entryPerimeter=0;" edge="1" parent="1">
          <mxGeometry width="50" height="50" relative="1" as="geometry">
            <mxPoint x="230" y="-249" as="sourcePoint" />
            <mxPoint x="409" y="-250" as="targetPoint" />
          </mxGeometry>
        </mxCell>
        <mxCell id="rG4kAE8rR3QUM03pJiwQ-10" value="" style="endArrow=none;html=1;rounded=0;entryX=0.997;entryY=0.183;entryDx=0;entryDy=0;entryPerimeter=0;" edge="1" parent="1">
          <mxGeometry width="50" height="50" relative="1" as="geometry">
            <mxPoint x="230" y="-309" as="sourcePoint" />
            <mxPoint x="409" y="-310" as="targetPoint" />
          </mxGeometry>
        </mxCell>
        <mxCell id="rG4kAE8rR3QUM03pJiwQ-11" value="" style="endArrow=none;html=1;rounded=0;entryX=0.997;entryY=0.183;entryDx=0;entryDy=0;entryPerimeter=0;" edge="1" parent="1">
          <mxGeometry width="50" height="50" relative="1" as="geometry">
            <mxPoint x="230" y="-279" as="sourcePoint" />
            <mxPoint x="409" y="-280" as="targetPoint" />
          </mxGeometry>
        </mxCell>
        <mxCell id="rG4kAE8rR3QUM03pJiwQ-12" value="" style="endArrow=none;html=1;rounded=0;entryX=0.997;entryY=0.183;entryDx=0;entryDy=0;entryPerimeter=0;" edge="1" parent="1">
          <mxGeometry width="50" height="50" relative="1" as="geometry">
            <mxPoint x="231" y="-189" as="sourcePoint" />
            <mxPoint x="410" y="-190" as="targetPoint" />
          </mxGeometry>
        </mxCell>
        <mxCell id="rG4kAE8rR3QUM03pJiwQ-13" value="" style="endArrow=none;html=1;rounded=0;entryX=0.997;entryY=0.183;entryDx=0;entryDy=0;entryPerimeter=0;" edge="1" parent="1">
          <mxGeometry width="50" height="50" relative="1" as="geometry">
            <mxPoint x="231" y="-219" as="sourcePoint" />
            <mxPoint x="410" y="-220" as="targetPoint" />
          </mxGeometry>
        </mxCell>
        <mxCell id="rG4kAE8rR3QUM03pJiwQ-14" value="" style="endArrow=none;html=1;rounded=0;entryX=0.997;entryY=0.183;entryDx=0;entryDy=0;entryPerimeter=0;" edge="1" parent="1">
          <mxGeometry width="50" height="50" relative="1" as="geometry">
            <mxPoint x="231" y="-159" as="sourcePoint" />
            <mxPoint x="410" y="-160" as="targetPoint" />
          </mxGeometry>
        </mxCell>
        <mxCell id="rG4kAE8rR3QUM03pJiwQ-15" value="１" style="text;html=1;align=center;verticalAlign=middle;resizable=0;points=[];autosize=1;strokeColor=none;fillColor=none;" vertex="1" parent="1">
          <mxGeometry x="224" y="-430" width="40" height="30" as="geometry" />
        </mxCell>
        <mxCell id="rG4kAE8rR3QUM03pJiwQ-16" value="２" style="text;html=1;align=center;verticalAlign=middle;resizable=0;points=[];autosize=1;strokeColor=none;fillColor=none;" vertex="1" parent="1">
          <mxGeometry x="224" y="-400" width="40" height="30" as="geometry" />
        </mxCell>
        <mxCell id="rG4kAE8rR3QUM03pJiwQ-17" value="３" style="text;html=1;align=center;verticalAlign=middle;resizable=0;points=[];autosize=1;strokeColor=none;fillColor=none;" vertex="1" parent="1">
          <mxGeometry x="224" y="-370" width="40" height="30" as="geometry" />
        </mxCell>
        <mxCell id="rG4kAE8rR3QUM03pJiwQ-18" value="４" style="text;html=1;align=center;verticalAlign=middle;resizable=0;points=[];autosize=1;strokeColor=none;fillColor=none;" vertex="1" parent="1">
          <mxGeometry x="224" y="-340" width="40" height="30" as="geometry" />
        </mxCell>
        <mxCell id="rG4kAE8rR3QUM03pJiwQ-19" value="５" style="text;html=1;align=center;verticalAlign=middle;resizable=0;points=[];autosize=1;strokeColor=none;fillColor=none;" vertex="1" parent="1">
          <mxGeometry x="224" y="-310" width="40" height="30" as="geometry" />
        </mxCell>
        <mxCell id="rG4kAE8rR3QUM03pJiwQ-20" value="６" style="text;html=1;align=center;verticalAlign=middle;resizable=0;points=[];autosize=1;strokeColor=none;fillColor=none;" vertex="1" parent="1">
          <mxGeometry x="224" y="-280" width="40" height="30" as="geometry" />
        </mxCell>
        <mxCell id="rG4kAE8rR3QUM03pJiwQ-21" value="７" style="text;html=1;align=center;verticalAlign=middle;resizable=0;points=[];autosize=1;strokeColor=none;fillColor=none;" vertex="1" parent="1">
          <mxGeometry x="224" y="-250" width="40" height="30" as="geometry" />
        </mxCell>
        <mxCell id="rG4kAE8rR3QUM03pJiwQ-22" value="８" style="text;html=1;align=center;verticalAlign=middle;resizable=0;points=[];autosize=1;strokeColor=none;fillColor=none;" vertex="1" parent="1">
          <mxGeometry x="224" y="-220" width="40" height="30" as="geometry" />
        </mxCell>
        <mxCell id="rG4kAE8rR3QUM03pJiwQ-23" value="９" style="text;html=1;align=center;verticalAlign=middle;resizable=0;points=[];autosize=1;strokeColor=none;fillColor=none;" vertex="1" parent="1">
          <mxGeometry x="224" y="-190" width="40" height="30" as="geometry" />
        </mxCell>
        <mxCell id="rG4kAE8rR3QUM03pJiwQ-24" value="" style="endArrow=none;html=1;rounded=0;entryX=0.997;entryY=0.183;entryDx=0;entryDy=0;entryPerimeter=0;" edge="1" parent="1">
          <mxGeometry width="50" height="50" relative="1" as="geometry">
            <mxPoint x="230" y="-129" as="sourcePoint" />
            <mxPoint x="409" y="-130" as="targetPoint" />
          </mxGeometry>
        </mxCell>
        <mxCell id="rG4kAE8rR3QUM03pJiwQ-25" value="10" style="text;html=1;align=center;verticalAlign=middle;resizable=0;points=[];autosize=1;strokeColor=none;fillColor=none;" vertex="1" parent="1">
          <mxGeometry x="224" y="-160" width="40" height="30" as="geometry" />
        </mxCell>
        <mxCell id="rG4kAE8rR3QUM03pJiwQ-26" value="11" style="text;html=1;align=center;verticalAlign=middle;resizable=0;points=[];autosize=1;strokeColor=none;fillColor=none;" vertex="1" parent="1">
          <mxGeometry x="224" y="-130" width="40" height="30" as="geometry" />
        </mxCell>
        <mxCell id="rG4kAE8rR3QUM03pJiwQ-27" value="" style="endArrow=none;html=1;rounded=0;entryX=0.997;entryY=0.183;entryDx=0;entryDy=0;entryPerimeter=0;" edge="1" parent="1">
          <mxGeometry width="50" height="50" relative="1" as="geometry">
            <mxPoint x="230" y="-400" as="sourcePoint" />
            <mxPoint x="409" y="-401" as="targetPoint" />
          </mxGeometry>
        </mxCell>
      </root>
    </mxGraphModel>
  </diagram>
</mxfile>
